<svg xmlns="http://www.w3.org/2000/svg" viewBox="0 0 200 200"><style>.s{animation:sw 1.8s ease-in-out infinite;transform-origin:100px 110px}@keyframes sw{0%,100%{transform:translateY(0) rotate(-3deg)}50%{transform:translateY(-8px) rotate(3deg)}}.f{animation:ff 1.4s ease-in-out infinite;transform-origin:104px 70px}@keyframes ff{0%,100%{transform:rotate(0)}50%{transform:rotate(-9deg)}}.w{animation:wv 2.2s ease-in-out infinite;transform-origin:0 0}@keyframes wv{0%,100%{transform:translateX(0)}50%{transform:translateX(-12px)}}</style><g class="s"><path d="M30 118q34-30 74-28 46 2 66 26-20 26-66 28-40 2-74-26z" fill="#5b7fa6"/><path d="M40 116q30-24 64-22 40 2 58 22-18 20-58 22-34 2-64-22z" fill="#7d9dbd"/><path d="M96 92q4-24 22-30 4 18-4 34z" fill="#4a6a8f" class="f"/><circle cx="140" cy="108" r="4.5" fill="#1a1a2e"/><path d="M150 118q6 4 12 2" stroke="#1a1a2e" stroke-width="3" fill="none" stroke-linecap="round"/><path d="M74 130l8 10 8-10zM100 134l8 10 8-10z" fill="#e8ecef"/><path d="M44 100q-16-10-24-2 8 10 22 8z" fill="#4a6a8f"/></g><path d="M0 148q20-12 40 0t40 0 40 0 40 0 40 0v52H0z" fill="#74c0fc" opacity=".5" class="w"/></svg>