<svg xmlns="http://www.w3.org/2000/svg" viewBox="0 0 200 200"><style>.b{animation:bb 1.3s ease-in-out infinite;transform-origin:100px 160px}@keyframes bb{0%,100%{transform:translateY(0) scaleY(1)}45%{transform:translateY(-7px) scaleY(1.02)}60%{transform:translateY(0) scaleY(.96)}}</style><g class="b"><path d="M42 158q-8-58 22-84 20-16 44-2 34 20 40 86z" fill="#a9743f"/><path d="M56 158q-4-46 20-64 16-12 32 0 26 20 28 64z" fill="#b98450"/><path d="M58 74q-2-14 8-16 10-2 14 10z" fill="#8d5a2b"/><path d="M132 68q0-14 10-14 10 0 10 14z" fill="#8d5a2b"/><circle cx="72" cy="108" r="5.5" fill="#2b2b2b"/><circle cx="112" cy="108" r="5.5" fill="#2b2b2b"/><path d="M84 126q12 6 26 0" stroke="#6e4520" stroke-width="4" fill="none" stroke-linecap="round"/><path d="M86 58q6-14 16-10" stroke="#f08c00" stroke-width="6" fill="none" stroke-linecap="round" opacity=".9"/></g></svg>