<svg xmlns="http://www.w3.org/2000/svg" viewBox="0 0 200 200"><style>.b{animation:bb 2s ease-in-out infinite;transform-origin:100px 130px}@keyframes bb{0%,100%{transform:translateY(0)}50%{transform:translateY(-7px)}}.f{animation:fo 1.2s ease-in-out infinite;transform-origin:100px 60px}@keyframes fo{0%,100%{opacity:.85;transform:scale(.92)}50%{opacity:1;transform:scale(1.1)}}.w{animation:wv 2.4s ease-in-out infinite}@keyframes wv{0%,100%{transform:translateX(0)}50%{transform:translateX(-10px)}}</style><g class="f"><path d="M96 58q-4-16-12-22M104 58q2-18 10-24M100 58v-20" stroke="#4dabf7" stroke-width="5" fill="none" stroke-linecap="round"/><circle cx="82" cy="32" r="4" fill="#74c0fc"/><circle cx="116" cy="30" r="5" fill="#74c0fc"/><circle cx="100" cy="30" r="4" fill="#74c0fc"/></g><g class="b"><path d="M28 124q28-44 82-40 48 4 62 36-14 32-62 36-54 4-82-32z" fill="#4dabf7"/><path d="M40 122q24-34 70-32 42 4 54 30-12 26-54 30-46 2-70-28z" fill="#74c0fc"/><circle cx="142" cy="112" r="4.5" fill="#1a1a2e"/><path d="M150 122q8 4 14 0" stroke="#1a1a2e" stroke-width="3" fill="none" stroke-linecap="round"/><path d="M60 128q14 14 30 2-14 22-34 10z" fill="#e8f4fd"/><path d="M40 104q-14-10-24-4 8 12 22 10z" fill="#339af0"/></g><path d="M0 156q20-10 40 0t40 0 40 0 40 0 40 0v44H0z" fill="#74c0fc" opacity=".45" class="w"/></svg>